<?xml version="1.0" encoding="UTF-8"?>
<svg width="71px" height="24px" viewBox="0 0 71 24" version="1.1" xmlns="http://www.w3.org/2000/svg" xmlns:xlink="http://www.w3.org/1999/xlink">
    <!-- Generator: Sketch 54.1 (76490) - https://sketchapp.com -->
    <title>heyvy</title>
    <desc>Created with Sketch.</desc>
    <g id="Page-1" stroke="none" stroke-width="1" fill="none" fill-rule="evenodd">
        <g id="Heyvy-Landing" transform="translate(-61.000000, -57.000000)" fill="#FFFFFF" fill-rule="nonzero">
            <path d="M65.0795406,67.4318254 L65.0795406,75 L61.4488623,75 L61.4488623,57.5454712 L64.977268,57.5454712 L64.977268,64.2187603 L65.1306769,64.2187603 C65.7272673,62.6761481 67.0568115,61.738649 69.042605,61.738649 C71.7698751,61.738649 73.5766916,63.5966018 73.5681689,66.6647807 L73.5681989,75 L69.9374905,75 L69.9374905,67.3125073 C69.9460132,65.7017134 69.0766959,64.7556916 67.6022655,64.7556916 C66.1193123,64.7556916 65.0880633,65.744327 65.0795406,67.4318254 Z M82.3977202,75.2556816 C78.366474,75.2556816 75.9034082,72.664775 75.9034082,68.5142107 C75.9034082,64.4744419 78.4005649,61.738649 82.252834,61.738649 C85.7130579,61.738649 88.4062372,63.9375106 88.4062372,68.3863699 L88.4062372,69.3835281 L79.491473,69.3835281 L79.491473,69.3920508 C79.491473,71.3437535 80.6420401,72.5454569 82.4573792,72.5454569 C83.6676054,72.5454569 84.6051045,72.025571 84.9715814,71.0284129 L88.3295327,71.2500036 C87.8181696,73.6789785 85.6363535,75.2556816 82.3977202,75.2556816 Z M79.491473,67.1335302 L84.9886268,67.1335302 C84.9801041,65.5738726 83.8891961,64.4488737 82.312493,64.4488737 C80.7016991,64.4488737 79.5681774,65.6420544 79.491473,67.1335302 Z M92.8892011,80.096586 C91.8579521,80.096586 91.1164756,79.8749954 90.707385,79.6960182 L91.5255661,76.8835209 C92.803974,77.275566 93.681814,77.1988615 94.1931772,76.0056809 L94.4318133,75.3749996 L89.7357951,61.9091034 L93.5539732,61.9091034 L96.2641979,71.5227306 L96.4005614,71.5227306 L99.1363543,61.9091034 L102.980101,61.9091034 L97.8664691,76.4999986 C97.1249926,78.5965875 95.5482895,80.096586 92.8892011,80.096586 Z M117.042601,61.9091034 L112.4659,75 L108.374995,75 L103.798295,61.9091034 L107.633519,61.9091034 L110.352266,71.2755717 L110.48863,71.2755717 L113.198854,61.9091034 L117.042601,61.9091034 Z M121.014201,80.096586 C119.982952,80.096586 119.241476,79.8749954 118.832385,79.6960182 L119.650566,76.8835209 C120.928974,77.275566 121.806814,77.1988615 122.318177,76.0056809 L122.556813,75.3749996 L117.860795,61.9091034 L121.678973,61.9091034 L124.389198,71.5227306 L124.525561,71.5227306 L127.261354,61.9091034 L131.105101,61.9091034 L125.991469,76.4999986 C125.249993,78.5965875 123.67329,80.096586 121.014201,80.096586 Z" id="heyvy"></path>
        </g>
    </g>
</svg>