<?xml version="1.0" encoding="UTF-8"?>
<svg width="386px" height="900px" viewBox="0 0 386 900" version="1.1" xmlns="http://www.w3.org/2000/svg" xmlns:xlink="http://www.w3.org/1999/xlink">
    <!-- Generator: Sketch 54.1 (76490) - https://sketchapp.com -->
    <title>Group</title>
    <desc>Created with Sketch.</desc>
    <g id="Page-1" stroke="none" stroke-width="1" fill="none" fill-rule="evenodd">
        <g id="Heyvy-Landing" transform="translate(-1054.000000, 0.000000)">
            <g id="Group" transform="translate(1054.000000, 0.000000)">
                <path d="M256,130 L386,130 L386,256 L256,256 L256,386 L130,386 L130,256 L0,256 L7.71527483e-15,130 L130,130 L130,0 L256,0 L256,130 Z" id="Combined-Shape" fill="#FFFFFF"></path>
                <path d="M256,644 L386,644 L386,770 L256,770 L256,900 L130,900 L130,770 L0,770 L7.71527483e-15,644 L130,644 L130,514 L256,514 L256,644 Z" id="Combined-Shape" fill="#CEBBA2"></path>
            </g>
        </g>
    </g>
</svg>