<?xml version="1.0" encoding="UTF-8"?>
<svg width="193px" height="77px" viewBox="0 0 193 77" version="1.1" xmlns="http://www.w3.org/2000/svg" xmlns:xlink="http://www.w3.org/1999/xlink">
    <!-- Generator: Sketch 54.1 (76490) - https://sketchapp.com -->
    <title>Combined Shape</title>
    <desc>Created with Sketch.</desc>
    <g id="Page-1" stroke="none" stroke-width="1" fill="none" fill-rule="evenodd" opacity="0.400000006">
        <g id="Heyvy-Landing" transform="translate(-250.000000, -1082.000000)" fill="#FFFFFF">
            <g id="Group-2" transform="translate(250.000000, 1082.000000)">
                <path d="M9.47991311,8.0688998 L15.8402724,14.4311514 C16.2305757,14.8215708 16.2305757,15.4545657 15.8402724,15.8449851 C15.4499691,16.2354044 14.8171625,16.2354044 14.4268592,15.8449851 L8.06649994,9.48273348 L1.70614063,15.8449851 C1.31583736,16.2354044 0.683030726,16.2354044 0.292727454,15.8449851 C-0.097575818,15.4545657 -0.097575818,14.8215708 0.292727454,14.4311514 L6.65308676,8.0688998 L0.292727454,1.70664823 C-0.097575818,1.31622884 -0.097575818,0.683233934 0.292727454,0.292814543 C0.683030726,-0.0976048477 1.31583736,-0.0976048477 1.70614063,0.292814543 L8.06649994,6.65506612 L14.4268592,0.292814543 C14.8171625,-0.0976048477 15.4499691,-0.0976048477 15.8402724,0.292814543 C16.2305757,0.683233934 16.2305757,1.31622884 15.8402724,1.70664823 L9.47991311,8.0688998 Z M186.379739,8.0688998 L192.740098,14.4311514 C193.130401,14.8215708 193.130401,15.4545657 192.740098,15.8449851 C192.349795,16.2354044 191.716988,16.2354044 191.326685,15.8449851 L184.966326,9.48273348 L178.605966,15.8449851 C178.215663,16.2354044 177.582856,16.2354044 177.192553,15.8449851 C176.80225,15.4545657 176.80225,14.8215708 177.192553,14.4311514 L183.552912,8.0688998 L177.192553,1.70664823 C176.80225,1.31622884 176.80225,0.683233934 177.192553,0.292814543 C177.582856,-0.0976048477 178.215663,-0.0976048477 178.605966,0.292814543 L184.966326,6.65506612 L191.326685,0.292814543 C191.716988,-0.0976048477 192.349795,-0.0976048477 192.740098,0.292814543 C193.130401,0.683233934 193.130401,1.31622884 192.740098,1.70664823 L186.379739,8.0688998 Z M127.41313,8.0688998 L133.77349,14.4311514 C134.163793,14.8215708 134.163793,15.4545657 133.77349,15.8449851 C133.383186,16.2354044 132.75038,16.2354044 132.360076,15.8449851 L125.999717,9.48273348 L119.639358,15.8449851 C119.249054,16.2354044 118.616248,16.2354044 118.225945,15.8449851 C117.835641,15.4545657 117.835641,14.8215708 118.225945,14.4311514 L124.586304,8.0688998 L118.225945,1.70664823 C117.835641,1.31622884 117.835641,0.683233934 118.225945,0.292814543 C118.616248,-0.0976048477 119.249054,-0.0976048477 119.639358,0.292814543 L125.999717,6.65506612 L132.360076,0.292814543 C132.75038,-0.0976048477 133.383186,-0.0976048477 133.77349,0.292814543 C134.163793,0.683233934 134.163793,1.31622884 133.77349,1.70664823 L127.41313,8.0688998 Z M68.4465217,8.0688998 L74.806881,14.4311514 C75.1971842,14.8215708 75.1971842,15.4545657 74.806881,15.8449851 C74.4165777,16.2354044 73.7837711,16.2354044 73.3934678,15.8449851 L67.0331085,9.48273348 L60.6727492,15.8449851 C60.2824459,16.2354044 59.6496393,16.2354044 59.259336,15.8449851 C58.8690327,15.4545657 58.8690327,14.8215708 59.259336,14.4311514 L65.6196953,8.0688998 L59.259336,1.70664823 C58.8690327,1.31622884 58.8690327,0.683233934 59.259336,0.292814543 C59.6496393,-0.0976048477 60.2824459,-0.0976048477 60.6727492,0.292814543 L67.0331085,6.65506612 L73.3934678,0.292814543 C73.7837711,-0.0976048477 74.4165777,-0.0976048477 74.806881,0.292814543 C75.1971842,0.683233934 75.1971842,1.31622884 74.806881,1.70664823 L68.4465217,8.0688998 Z M9.47991311,68.0527829 L15.8402724,74.4150345 C16.2305757,74.8054539 16.2305757,75.4384488 15.8402724,75.8288681 C15.4499691,76.2192875 14.8171625,76.2192875 14.4268592,75.8288681 L8.06649994,69.4666166 L1.70614063,75.8288681 C1.31583736,76.2192875 0.683030726,76.2192875 0.292727454,75.8288681 C-0.097575818,75.4384488 -0.097575818,74.8054539 0.292727454,74.4150345 L6.65308676,68.0527829 L0.292727454,61.6905313 C-0.097575818,61.3001119 -0.097575818,60.667117 0.292727454,60.2766976 C0.683030726,59.8862782 1.31583736,59.8862782 1.70614063,60.2766976 L8.06649994,66.6389492 L14.4268592,60.2766976 C14.8171625,59.8862782 15.4499691,59.8862782 15.8402724,60.2766976 C16.2305757,60.667117 16.2305757,61.3001119 15.8402724,61.6905313 L9.47991311,68.0527829 Z M68.4465217,68.0527829 L74.806881,74.4150345 C75.1971842,74.8054539 75.1971842,75.4384488 74.806881,75.8288681 C74.4165777,76.2192875 73.7837711,76.2192875 73.3934678,75.8288681 L67.0331085,69.4666166 L60.6727492,75.8288681 C60.2824459,76.2192875 59.6496393,76.2192875 59.259336,75.8288681 C58.8690327,75.4384488 58.8690327,74.8054539 59.259336,74.4150345 L65.6196953,68.0527829 L59.259336,61.6905313 C58.8690327,61.3001119 58.8690327,60.667117 59.259336,60.2766976 C59.6496393,59.8862782 60.2824459,59.8862782 60.6727492,60.2766976 L67.0331085,66.6389492 L73.3934678,60.2766976 C73.7837711,59.8862782 74.4165777,59.8862782 74.806881,60.2766976 C75.1971842,60.667117 75.1971842,61.3001119 74.806881,61.6905313 L68.4465217,68.0527829 Z" id="Combined-Shape"></path>
            </g>
        </g>
    </g>
</svg>